<svg xmlns="http://www.w3.org/2000/svg" viewBox="0 0 3556 5253" shape-rendering="geometricPrecision" text-rendering="geometricPrecision" image-rendering="optimizeQuality" fill-rule="evenodd" clip-rule="evenodd"><defs><style>.fil1{fill:gray}.fil0{fill:#ff9800}.fil2{fill:#000;fill-rule:nonzero}</style></defs><g id="Слой_x0020_1"><path class="fil0" d="M1463 3071c-262-54-514-177-727-370-213-192-359-431-439-686l430-90c60 168 161 324 302 453 142 128 308 213 481 256l-47 437z"/><path class="fil1" d="M2819 402c635 575 684 1556 109 2191-311 342-739 514-1167 510l47-437c293-8 583-131 796-366 413-457 378-1162-78-1575S1365 347 951 803c-212 235-306 536-285 828l-430 91c-47-426 82-869 392-1212 575-635 1556-684 2191-108z"/><path class="fil2" d="M455 4490v-287H322l-144 287H0l170-340c-82-45-123-116-123-211 0-78 26-139 77-182 51-42 122-64 214-65h282v798H455zm-243-539c0 45 10 77 32 97s55 30 98 30h113v-252H342c-87 0-130 42-130 125zm708 259v280H756v-798h311c60 0 113 11 158 33 46 22 81 53 105 94 25 40 37 86 37 138 0 78-27 140-80 185-54 45-128 68-223 68H920zm0-134h147c44 0 77-10 100-31 23-20 34-49 34-87 0-39-12-71-35-95s-54-37-95-37H920v250zm553-384h164v666h320v-666h165v666h109l-11 324h-154v-192h-593v-798zm1338 451h-315v215h370v132h-534v-798h533v134h-369v189h315v128zm152 347v-798h279c97 0 170 19 220 56s76 91 76 163c0 39-11 74-31 103-20 30-48 52-84 66 41 10 74 31 97 62 24 31 36 69 36 114 0 76-25 134-74 174-49 39-119 59-209 60h-310zm164-347v215h141c39 0 69-9 91-28 21-18 32-44 32-76 0-73-38-110-113-111h-151zm0-116h122c83-2 124-35 124-100 0-36-10-62-31-78-21-15-55-23-100-23h-115v201zM238 4968h31v280h-31v-230L87 5248H57v-280h30v230l151-230zm319 151h-43v129h-32v-280h32v124h42l103-124h39l-115 136 127 144h-40l-113-129zm175-15c0-27 6-51 16-73 10-21 25-38 44-50s41-18 65-18c37 0 67 13 90 39s35 61 35 104v6c0 27-5 52-16 73-10 22-25 39-44 50-19 12-40 18-65 18-37 0-67-13-90-39s-35-61-35-104v-6zm31 8c0 34 9 61 26 83 18 21 40 32 68 32s51-11 68-32c17-22 26-50 26-85v-6c0-21-4-41-12-59-8-17-19-31-33-41s-31-15-49-15c-28 0-50 11-68 33-17 21-26 50-26 85v5zm437 94l112-238h38v280h-31v-230l-108 230h-22l-109-235v235h-31v-280h41l110 238zm447 42h-31v-253h-150v253h-31v-280h212v280zm259 0c-3-9-5-22-5-39-11 14-25 25-42 32-17 8-35 12-53 12-27 0-49-8-66-23-16-15-24-34-24-56 0-28 11-49 33-65 23-16 55-24 95-24h56v-32c0-20-6-35-18-47-13-11-30-17-54-17-22 0-39 5-54 16-14 12-21 25-21 40h-31c0-22 11-41 31-58 21-16 46-24 76-24 32 0 56 8 74 23 18 16 28 38 28 66v132c0 27 3 47 9 61v3h-34zm-97-22c21 0 39-5 56-15 16-10 28-24 35-40v-62h-55c-31 0-55 6-72 17-18 11-26 26-26 45 0 16 5 29 17 39 12 11 27 16 45 16zm419 22h-31v-128h-151v128h-31v-280h31v126h151v-126h31v280zm117-178h80c21 0 39 4 55 11 15 8 27 18 35 31s12 29 12 46c0 27-9 49-28 65-18 17-43 25-75 25h-110v-280h31v102zm0 26v126h80c22 0 40-6 52-17 13-11 19-27 19-46s-6-34-18-45c-13-11-29-17-51-18h-82zm232 8c0-27 5-51 16-73 10-21 25-38 44-50s40-18 64-18c38 0 68 13 91 39s34 61 34 104v6c0 27-5 52-15 73-11 22-25 39-44 50-19 12-41 18-65 18-37 0-67-13-90-39-24-26-35-61-35-104v-6zm31 8c0 34 8 61 26 83 17 21 40 32 68 32s50-11 68-32c17-22 26-50 26-85v-6c0-21-4-41-12-59-8-17-19-31-34-41-14-10-30-15-49-15-27 0-50 11-67 33-17 21-26 50-26 85v5zm497 136h-31v-128h-151v128h-31v-280h31v126h151v-126h31v280zm117-178h80c21 0 39 4 55 11 15 8 27 18 35 31s12 29 12 46c0 27-9 49-28 65-18 17-43 25-75 25h-110v-280h31v102zm0 26v126h80c22 0 40-6 52-17 13-11 19-27 19-46s-6-34-18-45c-13-11-29-17-51-18h-82zm277 152h-31v-280h31v280z"/></g></svg>